<svg id="Layer_1" data-name="Layer 1" xmlns="http://www.w3.org/2000/svg" viewBox="0 0 512 512"><title>car-glyph</title><path d="M41.67,466.35C41.67,491.57,59.26,512,81,512s39.29-20.43,39.29-45.65V396.52H41.67Zm350.07,0c0,25.21,17.59,45.65,39.3,45.65s39.29-20.43,39.29-45.65V396.52H391.74Zm79.74-263.84L428.87,0H83.14L40.52,202.51H0V363H512V202.51Zm-364.1-171H404.62l36,171H71.41Zm-28,288.54c-19.72,0-35.72-16.72-35.72-37.33s16-37.36,35.72-37.36,35.72,16.73,35.72,37.36S99.11,320.08,79.38,320.08Zm353.24,0c-19.72,0-35.72-16.72-35.72-37.33s16-37.36,35.72-37.36,35.72,16.73,35.72,37.36S452.35,320.08,432.61,320.08Z" fill="#5b5b5f"/></svg>